<?xml version="1.0" encoding="UTF-8" standalone="no"?>
<!-- Generator: Adobe Illustrator 9.0, SVG Export Plug-In  -->

<!-- This set of SVG files is a complete cards game with figures, numbers	-->

<!--    and backs of cards completely designed in SVG.				-->

<!--    									-->

<!--    Copyright (C) 2004 David Bellot						-->

<!--										-->

<!--    This library is free software; you can redistribute it and/or		-->

<!--    modify it under the terms of the GNU Lesser General Public		-->

<!--    License as published by the Free Software Foundation; either		-->

<!--    version 2 of the License, or (at your option) any later version		-->

<!--										-->

<!--    This library is distributed in the hope that it will be useful,		-->

<!--    but WITHOUT ANY WARRANTY; without even the implied warranty of		-->

<!--    MERCHANTABILITY or FITNESS FOR A PARTICULAR PURPOSE.  See the GNU	-->

<!--    Lesser General Public License for more details.				-->

<!--										-->

<!--    You should have received a copy of the GNU Lesser General Public	-->

<!--    License along with this library; if not, write to the Free Software	-->

<!--    Foundation, Inc., 59 Temple Place, Suite 330, Boston, MA 02111-1307  USA-->

<!--										-->

<!--    Contact the author David Bellot at bellot@stat.berkeley.edu or 		-->

<!--    david.bellot@free.fr or yimyom@users.sourceforge.net			-->

<svg
   width="208"
   height="303"
   viewBox="0 0 167.08643 242.66699"
   xml:space="preserve"
   id="svg2"
   sodipodi:version="0.32"
   inkscape:version="1.1 (c4e8f9e, 2021-05-24)"
   sodipodi:docname="backsplit.svg"
   inkscape:output_extension="org.inkscape.output.svg.inkscape"
   version="1.0"
   xmlns:inkscape="http://www.inkscape.org/namespaces/inkscape"
   xmlns:sodipodi="http://sodipodi.sourceforge.net/DTD/sodipodi-0.dtd"
   xmlns="http://www.w3.org/2000/svg"
   xmlns:svg="http://www.w3.org/2000/svg"
   xmlns:rdf="http://www.w3.org/1999/02/22-rdf-syntax-ns#"
   xmlns:cc="http://creativecommons.org/ns#"
   xmlns:dc="http://purl.org/dc/elements/1.1/"><metadata
   id="metadata300"><rdf:RDF><cc:Work
       rdf:about=""><dc:format>image/svg+xml</dc:format><dc:type
         rdf:resource="http://purl.org/dc/dcmitype/StillImage" /></cc:Work></rdf:RDF></metadata><defs
   id="defs298" /><sodipodi:namedview
   inkscape:window-height="847"
   inkscape:window-width="1440"
   inkscape:pageshadow="2"
   inkscape:pageopacity="0.0"
   guidetolerance="10.0"
   gridtolerance="10.0"
   objecttolerance="10.0"
   borderopacity="1.0"
   bordercolor="#666666"
   pagecolor="#ffffff"
   id="base"
   width="208px"
   height="303px"
   inkscape:showpageshadow="false"
   inkscape:zoom="1.9170565"
   inkscape:cx="88.938434"
   inkscape:cy="137.97194"
   inkscape:window-x="0"
   inkscape:window-y="25"
   inkscape:current-layer="svg2"
   inkscape:pagecheckerboard="0"
   showgrid="false"
   inkscape:window-maximized="1" />
	<g
   id="Layer_x0020_1"
   style="fill:#ffffff;fill-rule:nonzero;stroke:#000000;stroke-width:0.9984901;stroke-miterlimit:4"
   transform="matrix(1,0,0,1.0030266,0,-0.367228)">
		<path
   style="stroke-width:0.49924505"
   d="M 166.83643,235.54785 C 166.83643,239.3252 163.75049,242.41699 159.96631,242.41699 L 7.1113281,242.41699 C 3.3364258,242.41699 0.25,239.3252 0.25,235.54785 L 0.25,7.1196289 C 0.25,3.3427734 3.3364258,0.25 7.1113281,0.25 L 159.96631,0.25 C 163.75049,0.25 166.83643,3.3427734 166.83643,7.1196289 L 166.83643,235.54785 L 166.83643,235.54785 z "
   id="path5" />
		<path
   style="fill-rule:evenodd;stroke:none"
   d="M 119.8374,46.616211 L 119.8374,9.3193359 L 82.811035,9.3193359 L 82.811035,46.616211 L 119.8374,46.616211 L 119.8374,46.616211 z "
   id="path7" />
		<path
   style="fill:#190c80;fill-rule:evenodd;stroke:none"
   d="M 156.84326,46.616211 L 156.84326,9.3193359 L 119.8374,9.3193359 L 119.8374,46.616211 L 156.84326,46.616211 z "
   id="path9" />
		<path
   style="fill-rule:evenodd;stroke:none"
   d="M 156.84326,83.913086 L 156.84326,46.616211 L 119.8374,46.616211 L 119.8374,83.913086 L 156.84326,83.913086 z "
   id="path11" />
		<path
   style="fill:#190c80;fill-rule:evenodd;stroke:none"
   d="M 119.8374,83.913086 L 119.8374,46.616211 L 82.811035,46.616211 L 82.811035,83.913086 L 119.8374,83.913086 L 119.8374,83.913086 z "
   id="path13" />
		<path
   style="fill-rule:evenodd;stroke:none"
   d="M 45.804199,121.20898 L 45.804199,83.913086 L 8.7983398,83.913086 L 8.7983398,121.20898 L 45.804199,121.20898 L 45.804199,121.20898 z "
   id="path15" />
		<path
   style="fill:#190c80;fill-rule:evenodd;stroke:none"
   d="M 82.811035,121.20898 L 82.811035,83.913086 L 45.804199,83.913086 L 45.804199,121.20898 L 82.811035,121.20898 L 82.811035,121.20898 z "
   id="path17" />
		<path
   style="fill-rule:evenodd;stroke:none"
   d="M 119.8374,121.20898 L 119.8374,83.913086 L 82.811035,83.913086 L 82.811035,121.20898 L 119.8374,121.20898 L 119.8374,121.20898 z "
   id="path19" />
		<path
   style="fill:#190c80;fill-rule:evenodd;stroke:none"
   d="M 156.84326,121.20898 L 156.84326,83.913086 L 119.8374,83.913086 L 119.8374,121.20898 L 156.84326,121.20898 L 156.84326,121.20898 z "
   id="path21" />
		<path
   style="fill-rule:evenodd;stroke:none"
   d="M 82.811035,83.913086 L 82.811035,46.616211 L 45.804199,46.616211 L 45.804199,83.913086 L 82.811035,83.913086 L 82.811035,83.913086 z "
   id="path23" />
		<path
   style="fill:#190c80;fill-rule:evenodd;stroke:none"
   d="M 45.804199,83.913086 L 45.804199,46.616211 L 8.7983398,46.616211 L 8.7983398,83.913086 L 45.804199,83.913086 z "
   id="path25" />
		<path
   style="fill-rule:evenodd;stroke:none"
   d="M 45.804199,46.616211 L 45.804199,9.3193359 L 8.7983398,9.3193359 L 8.7983398,46.616211 L 45.804199,46.616211 z "
   id="path27" />
		<path
   style="fill:#190c80;fill-rule:evenodd;stroke:none"
   d="M 82.811035,46.616211 L 82.811035,9.3193359 L 45.804199,9.3193359 L 45.804199,46.616211 L 82.811035,46.616211 L 82.811035,46.616211 z "
   id="path29" />
		<path
   style="fill-rule:evenodd;stroke:none"
   d="M 82.811035,233.11914 L 82.811035,195.8125 L 45.804199,195.8125 L 45.804199,233.11914 L 82.811035,233.11914 L 82.811035,233.11914 z "
   id="path31" />
		<path
   style="fill:#190c80;fill-rule:evenodd;stroke:none"
   d="M 45.804199,233.11914 L 45.804199,195.8125 L 8.7983398,195.8125 L 8.7983398,233.11914 L 45.804199,233.11914 z "
   id="path33" />
		<path
   style="fill-rule:evenodd;stroke:none"
   d="M 45.804199,195.8125 L 45.804199,158.51563 L 8.7983398,158.51563 L 8.7983398,195.8125 L 45.804199,195.8125 z "
   id="path35" />
		<path
   style="fill:#190c80;fill-rule:evenodd;stroke:none"
   d="M 82.811035,195.8125 L 82.811035,158.51563 L 45.804199,158.51563 L 45.804199,195.8125 L 82.811035,195.8125 L 82.811035,195.8125 z "
   id="path37" />
		<path
   style="fill-rule:evenodd;stroke:none"
   d="M 156.84326,158.51563 L 156.84326,121.20898 L 119.8374,121.20898 L 119.8374,158.51563 L 156.84326,158.51563 z "
   id="path39" />
		<path
   style="fill:#190c80;fill-rule:evenodd;stroke:none"
   d="M 119.8374,158.51563 L 119.8374,121.20898 L 82.811035,121.20898 L 82.811035,158.51563 L 119.8374,158.51563 L 119.8374,158.51563 z "
   id="path41" />
		<path
   style="fill-rule:evenodd;stroke:none"
   d="M 82.811035,158.51563 L 82.811035,121.20898 L 45.804199,121.20898 L 45.804199,158.51563 L 82.811035,158.51563 L 82.811035,158.51563 z "
   id="path43" />
		<path
   style="fill:#190c80;fill-rule:evenodd;stroke:none"
   d="M 45.804199,158.51563 L 45.804199,121.20898 L 8.7983398,121.20898 L 8.7983398,158.51563 L 45.804199,158.51563 z "
   id="path45" />
		<path
   style="fill-rule:evenodd;stroke:none"
   d="M 119.8374,195.8125 L 119.8374,158.51563 L 82.811035,158.51563 L 82.811035,195.8125 L 119.8374,195.8125 L 119.8374,195.8125 z "
   id="path47" />
		<path
   style="fill:#190c80;fill-rule:evenodd;stroke:none"
   d="M 156.84326,195.8125 L 156.84326,158.51563 L 119.8374,158.51563 L 119.8374,195.8125 L 156.84326,195.8125 z "
   id="path49" />
		<path
   style="fill-rule:evenodd;stroke:none"
   d="M 156.84326,233.11914 L 156.84326,195.8125 L 119.8374,195.8125 L 119.8374,233.11914 L 156.84326,233.11914 z "
   id="path51" />
		<path
   style="fill:#190c80;fill-rule:evenodd;stroke:none"
   d="M 119.8374,233.11914 L 119.8374,195.8125 L 82.811035,195.8125 L 82.811035,233.11914 L 119.8374,233.11914 L 119.8374,233.11914 z "
   id="path53" />
		<path
   style="fill:#190c80;fill-rule:evenodd;stroke:none"
   d="M 115.20459,9.3193359 L 119.8374,13.967285 L 87.442871,46.616211 L 82.811035,41.947754 L 115.20459,9.3193359 L 115.20459,9.3193359 z "
   id="path55" />
		<path
   style="fill-rule:evenodd;stroke:none"
   d="M 152.21143,9.3193359 L 156.84326,13.967285 L 124.47021,46.616211 L 119.8374,41.947754 L 152.21143,9.3193359"
   id="path57" />
		<path
   style="fill:#190c80;fill-rule:evenodd;stroke:none"
   d="M 124.47021,46.616211 L 119.8374,51.284668 L 152.21143,83.913086 L 156.84326,79.243652 L 124.47021,46.616211 L 124.47021,46.616211 z "
   id="path59" />
		<path
   style="fill-rule:evenodd;stroke:none"
   d="M 87.442871,46.616211 L 82.811035,51.284668 L 115.20459,83.913086 L 119.8374,79.243652 L 87.442871,46.616211"
   id="path61" />
		<path
   style="fill:#190c80;fill-rule:evenodd;stroke:none"
   d="M 41.172852,83.913086 L 45.804199,88.570313 L 13.42041,121.20898 L 8.7983399,116.56152 L 41.172852,83.913086 L 41.172852,83.913086 z "
   id="path63" />
		<path
   style="fill-rule:evenodd;stroke:none"
   d="M 78.199219,83.913086 L 82.811035,88.570313 L 50.436523,121.20898 L 45.804199,116.56152 L 78.199219,83.913086"
   id="path65" />
		<path
   style="fill:#190c80;fill-rule:evenodd;stroke:none"
   d="M 115.20459,83.913086 L 119.8374,88.570313 L 87.442871,121.20898 L 82.811035,116.56152 L 115.20459,83.913086 L 115.20459,83.913086 z "
   id="path67" />
		<path
   style="fill-rule:evenodd;stroke:none"
   d="M 152.21143,83.913086 L 156.84326,88.570313 L 124.47021,121.20898 L 119.8374,116.56152 L 152.21143,83.913086"
   id="path69" />
		<path
   style="fill:#190c80;fill-rule:evenodd;stroke:none"
   d="M 50.436523,46.616211 L 45.804199,51.284668 L 78.199219,83.913086 L 82.811035,79.243652 L 50.436523,46.616211 z "
   id="path71" />
		<path
   style="fill-rule:evenodd;stroke:none"
   d="M 13.42041,46.616211 L 8.7983399,51.284668 L 41.172852,83.913086 L 45.804199,79.243652 L 13.42041,46.616211"
   id="path73" />
		<path
   style="fill:#190c80;fill-rule:evenodd;stroke:none"
   d="M 41.172852,9.3193359 L 45.804199,13.967285 L 13.42041,46.616211 L 8.7983399,41.947754 L 41.172852,9.3193359 L 41.172852,9.3193359 z "
   id="path75" />
		<path
   style="fill-rule:evenodd;stroke:none"
   d="M 78.199219,9.3193359 L 82.811035,13.967285 L 50.436523,46.616211 L 45.804199,41.947754 L 78.199219,9.3193359"
   id="path77" />
		<path
   style="fill:#190c80;fill-rule:evenodd;stroke:none"
   d="M 50.436523,233.11914 L 45.804199,228.4502 L 78.199219,195.8125 L 82.811035,200.48047 L 50.436523,233.11914 L 50.436523,233.11914 z "
   id="path79" />
		<path
   style="fill-rule:evenodd;stroke:none"
   d="M 13.42041,233.11914 L 8.7983399,228.4502 L 41.172852,195.8125 L 45.804199,200.48047 L 13.42041,233.11914"
   id="path81" />
		<path
   style="fill:#190c80;fill-rule:evenodd;stroke:none"
   d="M 41.172852,195.8125 L 45.804199,191.14355 L 13.42041,158.51563 L 8.7983399,163.18457 L 41.172852,195.8125 z "
   id="path83" />
		<path
   style="fill-rule:evenodd;stroke:none"
   d="M 78.199219,195.8125 L 82.811035,191.14355 L 50.436523,158.51563 L 45.804199,163.18457 L 78.199219,195.8125"
   id="path85" />
		<path
   style="fill:#190c80;fill-rule:evenodd;stroke:none"
   d="M 124.47021,158.51563 L 119.8374,153.85742 L 152.21143,121.20898 L 156.84326,125.87793 L 124.47021,158.51563 L 124.47021,158.51563 z "
   id="path87" />
		<path
   style="fill-rule:evenodd;stroke:none"
   d="M 87.442871,158.51563 L 82.811035,153.85742 L 115.20459,121.20898 L 119.8374,125.87793 L 87.442871,158.51563"
   id="path89" />
		<path
   style="fill:#190c80;fill-rule:evenodd;stroke:none"
   d="M 50.436523,158.51563 L 45.804199,153.85742 L 78.199219,121.20898 L 82.811035,125.87793 L 50.436523,158.51563 z "
   id="path91" />
		<path
   style="fill-rule:evenodd;stroke:none"
   d="M 13.42041,158.51563 L 8.7983399,153.85742 L 41.172852,121.20898 L 45.804199,125.87793 L 13.42041,158.51563"
   id="path93" />
		<path
   style="fill:#190c80;fill-rule:evenodd;stroke:none"
   d="M 115.20459,195.8125 L 119.8374,191.14355 L 87.442871,158.51563 L 82.811035,163.18457 L 115.20459,195.8125 z "
   id="path95" />
		<path
   style="fill-rule:evenodd;stroke:none"
   d="M 152.21143,195.8125 L 156.84326,191.14355 L 124.47021,158.51563 L 119.8374,163.18457 L 152.21143,195.8125"
   id="path97" />
		<path
   style="fill:#190c80;fill-rule:evenodd;stroke:none"
   d="M 124.47021,233.11914 L 119.8374,228.4502 L 152.21143,195.8125 L 156.84326,200.48047 L 124.47021,233.11914 L 124.47021,233.11914 z "
   id="path99" />
		<path
   style="fill-rule:evenodd;stroke:none"
   d="M 87.442871,233.11914 L 82.811035,228.4502 L 115.20459,195.8125 L 119.8374,200.48047 L 87.442871,233.11914"
   id="path101" />
		<path
   style="fill:#190c80;fill-rule:evenodd;stroke:none"
   d="M 87.442871,9.3193359 L 82.811035,13.967285 L 115.20459,46.616211 L 119.8374,41.947754 L 87.442871,9.3193359 z "
   id="path103" />
		<path
   style="fill:#190c80;fill-rule:evenodd;stroke:none"
   d="M 101.31885,9.3193359 L 82.811035,27.972656 L 101.31885,46.616211 L 119.8374,27.972656 L 101.31885,9.3193359 z "
   id="path105" />
		<path
   style="fill-rule:evenodd;stroke:none"
   d="M 124.47021,9.3193359 L 119.8374,13.967285 L 152.21143,46.616211 L 156.84326,41.947754 L 124.47021,9.3193359"
   id="path107" />
		<path
   style="fill-rule:evenodd;stroke:none"
   d="M 138.32568,9.3193359 L 119.8374,27.972656 L 138.32568,46.616211 L 156.84326,27.972656 L 138.32568,9.3193359"
   id="path109" />
		<path
   style="fill:#190c80;fill-rule:evenodd;stroke:none"
   d="M 152.21143,46.616211 L 156.84326,51.284668 L 124.47021,83.913086 L 119.8374,79.243652 L 152.21143,46.616211 L 152.21143,46.616211 z "
   id="path111" />
		<path
   style="fill:#190c80;fill-rule:evenodd;stroke:none"
   d="M 138.32568,46.616211 L 156.84326,65.269531 L 138.32568,83.913086 L 119.8374,65.269531 L 138.32568,46.616211 z "
   id="path113" />
		<path
   style="fill-rule:evenodd;stroke:none"
   d="M 115.20459,46.616211 L 119.8374,51.284668 L 87.442871,83.913086 L 82.811035,79.243652 L 115.20459,46.616211"
   id="path115" />
		<path
   style="fill-rule:evenodd;stroke:none"
   d="M 101.31885,46.616211 L 119.8374,65.269531 L 101.31885,83.913086 L 82.811035,65.269531 L 101.31885,46.616211"
   id="path117" />
		<path
   style="fill:#190c80;fill-rule:evenodd;stroke:none"
   d="M 13.42041,83.913086 L 8.7983399,88.570313 L 41.172852,121.20898 L 45.804199,116.56152 L 13.42041,83.913086 z "
   id="path119" />
		<path
   style="fill:#190c80;fill-rule:evenodd;stroke:none"
   d="M 27.316895,83.913086 L 8.7983398,102.56543 L 27.316895,121.20898 L 45.804199,102.56543 L 27.316895,83.913086 z "
   id="path121" />
		<path
   style="fill-rule:evenodd;stroke:none"
   d="M 50.436523,83.913086 L 45.804199,88.570313 L 78.199219,121.20898 L 82.811035,116.56152 L 50.436523,83.913086"
   id="path123" />
		<path
   style="fill-rule:evenodd;stroke:none"
   d="M 64.323242,83.913086 L 45.804199,102.56543 L 64.323242,121.20898 L 82.811035,102.56543 L 64.323242,83.913086"
   id="path125" />
		<path
   style="fill:#190c80;fill-rule:evenodd;stroke:none"
   d="M 87.442871,83.913086 L 82.811035,88.570313 L 115.20459,121.20898 L 119.8374,116.56152 L 87.442871,83.913086 z "
   id="path127" />
		<path
   style="fill:#190c80;fill-rule:evenodd;stroke:none"
   d="M 101.31885,83.913086 L 82.811035,102.56543 L 101.31885,121.20898 L 119.8374,102.56543 L 101.31885,83.913086 z "
   id="path129" />
		<path
   style="fill-rule:evenodd;stroke:none"
   d="M 124.47021,83.913086 L 119.8374,88.570313 L 152.21143,121.20898 L 156.84326,116.56152 L 124.47021,83.913086"
   id="path131" />
		<path
   style="fill-rule:evenodd;stroke:none"
   d="M 138.32568,83.913086 L 119.8374,102.56543 L 138.32568,121.20898 L 156.84326,102.56543 L 138.32568,83.913086"
   id="path133" />
		<path
   style="fill:#190c80;fill-rule:evenodd;stroke:none"
   d="M 78.199219,46.616211 L 82.811035,51.284668 L 50.436523,83.913086 L 45.804199,79.243652 L 78.199219,46.616211 L 78.199219,46.616211 z "
   id="path135" />
		<path
   style="fill:#190c80;fill-rule:evenodd;stroke:none"
   d="M 64.323242,46.616211 L 82.811035,65.269531 L 64.323242,83.913086 L 45.804199,65.269531 L 64.323242,46.616211 z "
   id="path137" />
		<path
   style="fill-rule:evenodd;stroke:none"
   d="M 41.172852,46.616211 L 45.804199,51.284668 L 13.42041,83.913086 L 8.7983399,79.243652 L 41.172852,46.616211"
   id="path139" />
		<path
   style="fill-rule:evenodd;stroke:none"
   d="M 27.316895,46.616211 L 45.804199,65.269531 L 27.316895,83.913086 L 8.7983398,65.269531 L 27.316895,46.616211"
   id="path141" />
		<path
   style="fill:#190c80;fill-rule:evenodd;stroke:none"
   d="M 13.42041,9.3193359 L 8.7983399,13.967285 L 41.172852,46.616211 L 45.804199,41.947754 L 13.42041,9.3193359 z "
   id="path143" />
		<path
   style="fill:#190c80;fill-rule:evenodd;stroke:none"
   d="M 27.316895,9.3193359 L 8.7983398,27.972656 L 27.316895,46.616211 L 45.804199,27.972656 L 27.316895,9.3193359 z "
   id="path145" />
		<path
   style="fill-rule:evenodd;stroke:none"
   d="M 50.436523,9.3193359 L 45.804199,13.967285 L 78.199219,46.616211 L 82.811035,41.947754 L 50.436523,9.3193359"
   id="path147" />
		<path
   style="fill-rule:evenodd;stroke:none"
   d="M 64.323242,9.3193359 L 45.804199,27.972656 L 64.323242,46.616211 L 82.811035,27.972656 L 64.323242,9.3193359"
   id="path149" />
		<path
   style="fill:#190c80;fill-rule:evenodd;stroke:none"
   d="M 78.199219,233.11914 L 82.811035,228.4502 L 50.436523,195.8125 L 45.804199,200.48047 L 78.199219,233.11914 L 78.199219,233.11914 z "
   id="path151" />
		<path
   style="fill:#190c80;fill-rule:evenodd;stroke:none"
   d="M 64.323242,233.11914 L 82.811035,214.45508 L 64.323242,195.8125 L 45.804199,214.45508 L 64.323242,233.11914 z "
   id="path153" />
		<path
   style="fill-rule:evenodd;stroke:none"
   d="M 41.172852,233.11914 L 45.804199,228.4502 L 13.42041,195.8125 L 8.7983399,200.48047 L 41.172852,233.11914"
   id="path155" />
		<path
   style="fill-rule:evenodd;stroke:none"
   d="M 27.316895,233.11914 L 45.804199,214.45508 L 27.316895,195.8125 L 8.7983398,214.45508 L 27.316895,233.11914"
   id="path157" />
		<path
   style="fill:#190c80;fill-rule:evenodd;stroke:none"
   d="M 27.316895,195.8125 L 8.7983398,177.16895 L 27.316895,158.51563 L 45.804199,177.16895 L 27.316895,195.8125 z "
   id="path159" />
		<path
   style="fill-rule:evenodd;stroke:none"
   d="M 50.436523,195.8125 L 45.804199,191.14355 L 78.199219,158.51563 L 82.811035,163.18457 L 50.436523,195.8125"
   id="path161" />
		<path
   style="fill-rule:evenodd;stroke:none"
   d="M 64.323242,195.8125 L 45.804199,177.16895 L 64.323242,158.51563 L 82.811035,177.16895 L 64.323242,195.8125"
   id="path163" />
		<path
   style="fill:#190c80;fill-rule:evenodd;stroke:none"
   d="M 152.21143,158.51563 L 156.84326,153.85742 L 124.47021,121.20898 L 119.8374,125.87793 L 152.21143,158.51563 L 152.21143,158.51563 z "
   id="path165" />
		<path
   style="fill:#190c80;fill-rule:evenodd;stroke:none"
   d="M 138.32568,158.51563 L 156.84326,139.8623 L 138.32568,121.20898 L 119.8374,139.8623 L 138.32568,158.51563 z "
   id="path167" />
		<path
   style="fill-rule:evenodd;stroke:none"
   d="M 115.20459,158.51563 L 119.8374,153.85742 L 87.442871,121.20898 L 82.811035,125.87793 L 115.20459,158.51563"
   id="path169" />
		<path
   style="fill-rule:evenodd;stroke:none"
   d="M 101.31885,158.51563 L 119.8374,139.8623 L 101.31885,121.20898 L 82.811035,139.8623 L 101.31885,158.51563"
   id="path171" />
		<path
   style="fill:#190c80;fill-rule:evenodd;stroke:none"
   d="M 78.199219,158.51563 L 82.811035,153.85742 L 50.436523,121.20898 L 45.804199,125.87793 L 78.199219,158.51563 L 78.199219,158.51563 z "
   id="path173" />
		<path
   style="fill:#190c80;fill-rule:evenodd;stroke:none"
   d="M 64.323242,158.51563 L 82.811035,139.8623 L 64.323242,121.20898 L 45.804199,139.8623 L 64.323242,158.51563 z "
   id="path175" />
		<path
   style="fill-rule:evenodd;stroke:none"
   d="M 41.172852,158.51563 L 45.804199,153.85742 L 13.42041,121.20898 L 8.7983399,125.87793 L 41.172852,158.51563"
   id="path177" />
		<path
   style="fill-rule:evenodd;stroke:none"
   d="M 27.316895,158.51563 L 45.804199,139.8623 L 27.316895,121.20898 L 8.7983398,139.8623 L 27.316895,158.51563"
   id="path179" />
		<path
   style="fill:#190c80;fill-rule:evenodd;stroke:none"
   d="M 87.442871,195.8125 L 82.811035,191.14355 L 115.20459,158.51563 L 119.8374,163.18457 L 87.442871,195.8125 z "
   id="path181" />
		<path
   style="fill:#190c80;fill-rule:evenodd;stroke:none"
   d="M 101.31885,195.8125 L 82.811035,177.16895 L 101.31885,158.51563 L 119.8374,177.16895 L 101.31885,195.8125 z "
   id="path183" />
		<path
   style="fill-rule:evenodd;stroke:none"
   d="M 124.47021,195.8125 L 119.8374,191.14355 L 152.21143,158.51563 L 156.84326,163.18457 L 124.47021,195.8125"
   id="path185" />
		<path
   style="fill-rule:evenodd;stroke:none"
   d="M 138.32568,195.8125 L 119.8374,177.16895 L 138.32568,158.51563 L 156.84326,177.16895 L 138.32568,195.8125"
   id="path187" />
		<path
   style="fill:#190c80;fill-rule:evenodd;stroke:none"
   d="M 152.21143,233.11914 L 156.84326,228.4502 L 124.47021,195.8125 L 119.8374,200.48047 L 152.21143,233.11914 L 152.21143,233.11914 z "
   id="path189" />
		<path
   style="fill:#190c80;fill-rule:evenodd;stroke:none"
   d="M 138.32568,233.11914 L 156.84326,214.45508 L 138.32568,195.8125 L 119.8374,214.45508 L 138.32568,233.11914 z "
   id="path191" />
		<path
   style="fill-rule:evenodd;stroke:none"
   d="M 115.20459,233.11914 L 119.8374,228.4502 L 87.442871,195.8125 L 82.811035,200.48047 L 115.20459,233.11914"
   id="path193" />
		<path
   style="fill-rule:evenodd;stroke:none"
   d="M 101.31885,233.11914 L 119.8374,214.45508 L 101.31885,195.8125 L 82.811035,214.45508 L 101.31885,233.11914"
   id="path195" />
		<path
   style="fill-rule:evenodd;stroke:none"
   d="M 110.5835,37.279297 L 110.5835,18.057617 L 92.064941,18.057617 L 92.064941,37.279297 L 110.5835,37.279297 L 110.5835,37.279297 z "
   id="path197" />
		<path
   style="fill:#190c80;fill-rule:evenodd;stroke:none"
   d="M 147.58936,37.279297 L 147.58936,18.057617 L 129.09131,18.057617 L 129.09131,37.279297 L 147.58936,37.279297 z "
   id="path199" />
		<path
   style="fill:#190c80;fill-rule:evenodd;stroke:none"
   d="M 101.31885,20.970215 L 94.381348,27.972656 L 101.31885,34.944824 L 108.26709,27.972656 L 101.31885,20.970215"
   id="path201" />
		<path
   style="fill-rule:evenodd;stroke:none"
   d="M 138.32568,20.970215 L 131.39795,27.972656 L 138.32568,34.944824 L 145.27295,27.972656 L 138.32568,20.970215"
   id="path203" />
		<path
   style="fill-rule:evenodd;stroke:none"
   d="M 147.58936,74.585938 L 147.58936,55.364258 L 129.09131,55.364258 L 129.09131,74.585938 L 147.58936,74.585938 z "
   id="path205" />
		<path
   style="fill:#190c80;fill-rule:evenodd;stroke:none"
   d="M 110.5835,74.585938 L 110.5835,55.364258 L 92.064941,55.364258 L 92.064941,74.585938 L 110.5835,74.585938 L 110.5835,74.585938 z "
   id="path207" />
		<path
   style="fill:#190c80;fill-rule:evenodd;stroke:none"
   d="M 138.32568,58.276856 L 145.27295,65.269531 L 138.32568,72.251465 L 131.39795,65.269531 L 138.32568,58.276855"
   id="path209" />
		<path
   style="fill-rule:evenodd;stroke:none"
   d="M 101.31885,58.276856 L 108.26709,65.269531 L 101.31885,72.251465 L 94.381348,65.269531 L 101.31885,58.276855"
   id="path211" />
		<path
   style="fill-rule:evenodd;stroke:none"
   d="M 36.550781,111.89258 L 36.550781,92.660645 L 18.052246,92.660645 L 18.052246,111.89258 L 36.550781,111.89258 L 36.550781,111.89258 z "
   id="path213" />
		<path
   style="fill:#190c80;fill-rule:evenodd;stroke:none"
   d="M 73.567383,111.89258 L 73.567383,92.660645 L 55.059082,92.660645 L 55.059082,111.89258 L 73.567383,111.89258 L 73.567383,111.89258 z "
   id="path215" />
		<path
   style="fill:#190c80;fill-rule:evenodd;stroke:none"
   d="M 27.316895,95.562988 L 20.368164,102.56543 L 27.316895,109.56836 L 34.234375,102.56543 L 27.316895,95.562988"
   id="path217" />
		<path
   style="fill-rule:evenodd;stroke:none"
   d="M 64.323242,95.562988 L 57.375,102.56543 L 64.323242,109.56836 L 71.250977,102.56543 L 64.323242,95.562988"
   id="path219" />
		<path
   style="fill-rule:evenodd;stroke:none"
   d="M 110.5835,111.89258 L 110.5835,92.660645 L 92.064941,92.660645 L 92.064941,111.89258 L 110.5835,111.89258 L 110.5835,111.89258 z "
   id="path221" />
		<path
   style="fill:#190c80;fill-rule:evenodd;stroke:none"
   d="M 147.58936,111.89258 L 147.58936,92.660645 L 129.09131,92.660645 L 129.09131,111.89258 L 147.58936,111.89258 L 147.58936,111.89258 z "
   id="path223" />
		<path
   style="fill:#190c80;fill-rule:evenodd;stroke:none"
   d="M 101.31885,95.562988 L 94.381348,102.56543 L 101.31885,109.56836 L 108.26709,102.56543 L 101.31885,95.562988"
   id="path225" />
		<path
   style="fill-rule:evenodd;stroke:none"
   d="M 138.32568,95.562988 L 131.39795,102.56543 L 138.32568,109.56836 L 145.27295,102.56543 L 138.32568,95.562988"
   id="path227" />
		<path
   style="fill-rule:evenodd;stroke:none"
   d="M 73.567383,74.585938 L 73.567383,55.364258 L 55.059082,55.364258 L 55.059082,74.585938 L 73.567383,74.585938 L 73.567383,74.585938 z "
   id="path229" />
		<path
   style="fill:#190c80;fill-rule:evenodd;stroke:none"
   d="M 36.550781,74.585938 L 36.550781,55.364258 L 18.052246,55.364258 L 18.052246,74.585938 L 36.550781,74.585938 z "
   id="path231" />
		<path
   style="fill:#190c80;fill-rule:evenodd;stroke:none"
   d="M 64.323242,58.276856 L 71.250977,65.269531 L 64.323242,72.251465 L 57.375,65.269531 L 64.323242,58.276855"
   id="path233" />
		<path
   style="fill-rule:evenodd;stroke:none"
   d="M 27.316895,58.276856 L 34.234375,65.269531 L 27.316895,72.251465 L 20.368164,65.269531 L 27.316895,58.276855"
   id="path235" />
		<path
   style="fill-rule:evenodd;stroke:none"
   d="M 36.550781,37.279297 L 36.550781,18.057617 L 18.052246,18.057617 L 18.052246,37.279297 L 36.550781,37.279297 z "
   id="path237" />
		<path
   style="fill:#190c80;fill-rule:evenodd;stroke:none"
   d="M 73.567383,37.279297 L 73.567383,18.057617 L 55.059082,18.057617 L 55.059082,37.279297 L 73.567383,37.279297 L 73.567383,37.279297 z "
   id="path239" />
		<path
   style="fill:#190c80;fill-rule:evenodd;stroke:none"
   d="M 27.316895,20.970215 L 20.368164,27.972656 L 27.316895,34.944824 L 34.234375,27.972656 L 27.316895,20.970215"
   id="path241" />
		<path
   style="fill-rule:evenodd;stroke:none"
   d="M 64.323242,20.970215 L 57.375,27.972656 L 64.323242,34.944824 L 71.250977,27.972656 L 64.323242,20.970215"
   id="path243" />
		<path
   style="fill-rule:evenodd;stroke:none"
   d="M 73.567383,224.36035 L 73.567383,205.14941 L 55.059082,205.14941 L 55.059082,224.36035 L 73.567383,224.36035 L 73.567383,224.36035 z "
   id="path245" />
		<path
   style="fill:#190c80;fill-rule:evenodd;stroke:none"
   d="M 36.550781,224.36035 L 36.550781,205.14941 L 18.052246,205.14941 L 18.052246,224.36035 L 36.550781,224.36035 z "
   id="path247" />
		<path
   style="fill:#190c80;fill-rule:evenodd;stroke:none"
   d="M 64.323242,221.45801 L 71.250977,214.45508 L 64.323242,207.47363 L 57.375,214.45508 L 64.323242,221.45801"
   id="path249" />
		<path
   style="fill-rule:evenodd;stroke:none"
   d="M 27.316895,221.45801 L 34.234375,214.45508 L 27.316895,207.47363 L 20.368164,214.45508 L 27.316895,221.45801"
   id="path251" />
		<path
   style="fill:#190c80;fill-rule:evenodd;stroke:none"
   d="M 73.567383,187.07422 L 73.567383,167.84277 L 55.059082,167.84277 L 55.059082,187.07422 L 73.567383,187.07422 L 73.567383,187.07422 z "
   id="path253" />
		<path
   style="fill-rule:evenodd;stroke:none"
   d="M 64.323242,184.16113 L 57.375,177.16895 L 64.323242,170.16699 L 71.250977,177.16895 L 64.323242,184.16113"
   id="path255" />
		<path
   style="fill-rule:evenodd;stroke:none"
   d="M 147.58936,149.76758 L 147.58936,130.52637 L 129.09131,130.52637 L 129.09131,149.76758 L 147.58936,149.76758 z "
   id="path257" />
		<path
   style="fill:#190c80;fill-rule:evenodd;stroke:none"
   d="M 110.5835,149.76758 L 110.5835,130.52637 L 92.064941,130.52637 L 92.064941,149.76758 L 110.5835,149.76758 L 110.5835,149.76758 z "
   id="path259" />
		<path
   style="fill:#190c80;fill-rule:evenodd;stroke:none"
   d="M 138.32568,146.86426 L 145.27295,139.8623 L 138.32568,132.86035 L 131.39795,139.8623 L 138.32568,146.86426"
   id="path261" />
		<path
   style="fill-rule:evenodd;stroke:none"
   d="M 101.31885,146.86426 L 108.26709,139.8623 L 101.31885,132.86035 L 94.381348,139.8623 L 101.31885,146.86426"
   id="path263" />
		<path
   style="fill-rule:evenodd;stroke:none"
   d="M 73.567383,149.76758 L 73.567383,130.52637 L 55.059082,130.52637 L 55.059082,149.76758 L 73.567383,149.76758 L 73.567383,149.76758 z "
   id="path265" />
		<path
   style="fill:#190c80;fill-rule:evenodd;stroke:none"
   d="M 36.550781,149.76758 L 36.550781,130.52637 L 18.052246,130.52637 L 18.052246,149.76758 L 36.550781,149.76758 z "
   id="path267" />
		<path
   style="fill:#190c80;fill-rule:evenodd;stroke:none"
   d="M 64.323242,146.86426 L 71.250977,139.8623 L 64.323242,132.86035 L 57.375,139.8623 L 64.323242,146.86426"
   id="path269" />
		<path
   style="fill-rule:evenodd;stroke:none"
   d="M 27.316895,146.86426 L 34.234375,139.8623 L 27.316895,132.86035 L 20.368164,139.8623 L 27.316895,146.86426"
   id="path271" />
		<path
   style="fill-rule:evenodd;stroke:none"
   d="M 110.5835,187.07422 L 110.5835,167.84277 L 92.064941,167.84277 L 92.064941,187.07422 L 110.5835,187.07422 L 110.5835,187.07422 z "
   id="path273" />
		<path
   style="fill:#190c80;fill-rule:evenodd;stroke:none"
   d="M 147.58936,187.07422 L 147.58936,167.84277 L 129.09131,167.84277 L 129.09131,187.07422 L 147.58936,187.07422 z "
   id="path275" />
		<path
   style="fill:#190c80;fill-rule:evenodd;stroke:none"
   d="M 101.31885,184.16113 L 94.381348,177.16895 L 101.31885,170.16699 L 108.26709,177.16895 L 101.31885,184.16113"
   id="path277" />
		<path
   style="fill-rule:evenodd;stroke:none"
   d="M 138.32568,184.16113 L 131.39795,177.16895 L 138.32568,170.16699 L 145.27295,177.16895 L 138.32568,184.16113"
   id="path279" />
		<path
   style="fill-rule:evenodd;stroke:none"
   d="M 147.58936,224.36035 L 147.58936,205.14941 L 129.09131,205.14941 L 129.09131,224.36035 L 147.58936,224.36035 z "
   id="path281" />
		<path
   style="fill:#190c80;fill-rule:evenodd;stroke:none"
   d="M 110.5835,224.36035 L 110.5835,205.14941 L 92.064941,205.14941 L 92.064941,224.36035 L 110.5835,224.36035 L 110.5835,224.36035 z "
   id="path283" />
		<path
   style="fill:#190c80;fill-rule:evenodd;stroke:none"
   d="M 138.32568,221.45801 L 145.27295,214.45508 L 138.32568,207.47363 L 131.39795,214.45508 L 138.32568,221.45801"
   id="path285" />
		<path
   style="fill-rule:evenodd;stroke:none"
   d="M 101.31885,221.45801 L 108.26709,214.45508 L 101.31885,207.47363 L 94.381348,214.45508 L 101.31885,221.45801"
   id="path287" />
		<path
   style="fill:#190c80;fill-rule:evenodd;stroke:none"
   d="M 13.42041,195.8125 L 8.7983399,191.14355 L 41.172852,158.51563 L 45.804199,163.18457 L 13.42041,195.8125 z "
   id="path289" />
		<path
   style="fill-rule:evenodd;stroke:none"
   d="M 36.550781,187.07422 L 36.550781,167.84277 L 18.052246,167.84277 L 18.052246,187.07422 L 36.550781,187.07422 z "
   id="path291" />
		<path
   style="fill:#190c80;fill-rule:evenodd;stroke:none"
   d="M 27.316895,184.16113 L 20.368164,177.16895 L 27.316895,170.16699 L 34.234375,177.16895 L 27.316895,184.16113"
   id="path293" />
		<path
   style="fill:none;fill-rule:evenodd;stroke:#1e0c7d;stroke-width:2.99547029;stroke-linejoin:round;stroke-miterlimit:10"
   d="M 162.23193,236.57324 L 4.4824219,236.57324 L 4.4824219,4.5727539 L 162.23193,4.5727539 L 162.23193,236.57324 z "
   id="path295" />
	</g>
<path
   style="fill:#ff0000;stroke-width:0.521633"
   d="m 29.733084,132.23398 -4.156851,-4.18138 4.173064,-4.17306 4.173065,-4.17307 4.15685,4.18138 4.156851,4.18137 -4.173065,4.17307 -4.173064,4.17306 z"
   id="path1385"
   transform="matrix(0.80330014,0,0,0.80330014,0,-0.36647685)" /><path
   style="fill:#ff0000;stroke-width:0.521633"
   d="m 13.942017,148.26402 -2.722038,-2.75628 4.431757,-4.40873 4.431757,-4.40874 -4.292266,-4.31468 -4.292267,-4.31468 4.292267,-4.31468 4.292266,-4.31468 -4.431757,-4.40873 -4.431757,-4.40874 2.722038,-2.75627 2.722038,-2.75628 4.49563,4.4748 4.49563,4.4748 4.08569,-4.50031 4.085689,-4.5003 4.497907,4.47706 4.497906,4.47707 4.249309,-4.35346 4.249308,-4.35346 2.635694,2.63569 2.635694,2.63569 -4.256364,4.27859 -4.256365,4.27859 3.997885,4.24978 c 2.198836,2.33738 3.997885,4.46761 3.997885,4.73384 0,0.26624 -1.802609,2.37084 -4.005798,4.67689 l -4.005798,4.19282 4.264278,4.28655 4.264277,4.28654 -2.635694,2.6357 -2.635694,2.63569 -4.249308,-4.35346 -4.249309,-4.35346 -4.497906,4.47706 -4.497907,4.47707 -4.085689,-4.50031 -4.08569,-4.50031 -4.49563,4.47481 -4.49563,4.4748 z M 45.642892,127.8001 V 115.54172 H 33.906148 22.169404 v 12.25838 12.25837 h 11.736744 11.736744 z"
   id="path1424"
   transform="matrix(0.80330014,0,0,0.80330014,0,-0.36647685)" /><path
   style="fill:#ff0000;stroke-width:0.521633"
   d="M 68.594746,127.8001 V 116.06335 H 80.070673 91.5466 v 11.73675 11.73674 H 80.070673 68.594746 Z m 16.174509,4.69079 4.414733,-4.43779 -4.556658,-4.55666 -4.556657,-4.55665 -4.556658,4.55665 -4.556658,4.55666 4.414733,4.43779 c 2.428103,2.44078 4.542465,4.43778 4.698583,4.43778 0.156117,0 2.270479,-1.997 4.698582,-4.43778 z"
   id="path1463"
   transform="matrix(0.80330014,0,0,0.80330014,0,-0.36647685)" /><path
   style="fill:#ff0000;stroke-width:0.521633"
   d="m 121.81252,146.60802 -4.42267,-4.46364 -4.31059,4.2882 -4.31059,4.2882 -2.61664,-2.57728 -2.61663,-2.57729 4.29634,-4.31877 4.29633,-4.31877 -4.41085,-4.43388 -4.41084,-4.43388 4.41084,-4.43388 4.41085,-4.43388 -4.29633,-4.31877 -4.29634,-4.31877 2.62043,-2.58103 2.62044,-2.58103 4.28845,4.28846 4.28846,4.28846 4.48073,-4.45998 4.48074,-4.45997 4.08569,4.5003 4.08569,4.50031 4.49563,-4.4748 4.49563,-4.4748 2.72204,2.75628 2.72204,2.75627 -4.43176,4.40874 -4.43176,4.40873 4.29227,4.31468 4.29227,4.31468 -4.29227,4.31468 -4.29227,4.31468 4.43176,4.40874 4.43176,4.40873 -2.72204,2.75628 -2.72204,2.75628 -4.48982,-4.46902 -4.48982,-4.46902 -4.13123,4.4947 -4.13122,4.4947 z M 137.97194,127.8001 V 115.54172 H 126.2352 114.49845 v 12.25838 12.25837 h 11.73675 11.73674 z"
   id="path1502"
   transform="matrix(0.80330014,0,0,0.80330014,0,-0.36647685)" /><path
   style="fill:#ff0000;stroke-width:0.521633"
   d="m 122.06213,132.23398 -4.15685,-4.18138 4.17307,-4.17306 4.17306,-4.17307 4.15685,4.18138 4.15685,4.18137 -4.17306,4.17307 -4.17307,4.17306 z"
   id="path1541"
   transform="matrix(0.80330014,0,0,0.80330014,0,-0.36647685)" /><path
   style="fill:#ff0000;stroke-width:0.521633"
   d="m 160.92379,127.8001 v -11.73675 h 11.21512 11.21511 v 11.73675 11.73674 h -11.21511 -11.21512 z m 16.17451,4.69079 4.41474,-4.43779 -4.55666,-4.55666 -4.55666,-4.55665 -4.54528,4.54528 -4.54529,4.54529 4.15406,4.38181 c 2.28474,2.41 4.39398,4.41212 4.68721,4.44916 0.29323,0.037 2.51978,-1.92966 4.94788,-4.37044 z"
   id="path1580"
   transform="matrix(0.80330014,0,0,0.80330014,0,-0.36647685)" /><path
   style="fill:#ff0000;stroke-width:0.521633"
   d="M 115.02009,81.374755 V 69.638012 h 11.21511 11.21511 V 81.374755 93.111499 H 126.2352 115.02009 Z m 15.50768,4.836623 c 2.37291,-2.360576 4.31437,-4.526681 4.31437,-4.813566 0,-0.683296 -7.90417,-8.630002 -8.58381,-8.630002 -0.28764,0 -2.46026,1.927224 -4.82806,4.282721 l -4.30508,4.282719 4.29419,4.516587 c 2.3618,2.484123 4.40665,4.547392 4.5441,4.585042 0.13746,0.03765 2.19139,-1.862926 4.56429,-4.223501 z"
   id="path1619"
   transform="matrix(0.80330014,0,0,0.80330014,0,-0.36647685)" /><path
   style="fill:#ff0000;stroke-width:0.521633"
   d="m 168.08366,85.40552 -4.03076,-4.054547 4.05489,-4.031113 4.0549,-4.031114 4.14852,4.173002 4.14853,4.173001 -3.88655,3.912659 c -2.1376,2.151963 -4.01529,3.912659 -4.17265,3.912659 -0.15736,0 -2.09996,-1.824546 -4.31688,-4.054547 z"
   id="path1658"
   transform="matrix(0.80330014,0,0,0.80330014,0,-0.36647685)" /><path
   style="fill:#ff0000;stroke-width:0.521633"
   d="M 75.945273,85.595805 72.1068,81.731541 73.179181,80.249066 c 0.589809,-0.815362 2.380771,-2.764601 3.979914,-4.331642 l 2.907534,-2.849166 2.39229,2.327533 c 1.31576,1.280143 3.111583,3.22632 3.990718,4.324837 l 1.598427,1.997304 -3.845232,3.871068 c -2.114878,2.129087 -3.97435,3.871067 -4.132159,3.871067 -0.15781,0 -2.01424,-1.738918 -4.1254,-3.864262 z"
   id="path1697"
   transform="matrix(0.80330014,0,0,0.80330014,0,-0.36647685)" /><path
   style="fill:#ff0000;stroke-width:0.521633"
   d="M 68.594746,34.427781 V 22.691038 H 80.070673 91.5466 V 34.427781 46.164525 H 80.070673 68.594746 Z M 86.835684,32.603557 C 85.744469,31.311695 83.757639,29.19841 82.420508,27.907368 l -2.431148,-2.347349 -4.440397,4.636986 -4.440397,4.636986 4.550869,4.572052 4.550869,4.572053 4.304704,-4.512849 4.304703,-4.51285 z"
   id="path1736"
   transform="matrix(0.80330014,0,0,0.80330014,0,-0.36647685)" /><path
   style="fill:#ff0000;stroke-width:0.521633"
   d="M 22.691038,81.374755 V 69.638012 h 11.21511 11.215111 V 81.374755 93.111499 H 33.906148 22.691038 Z M 38.74276,77.082168 c -2.36057,-2.372897 -4.52667,-4.314358 -4.813555,-4.314358 -0.683296,0 -8.630002,7.904174 -8.630002,8.583812 0,0.287636 1.931648,2.46471 4.292551,4.837942 l 4.292552,4.314967 4.5752,-4.554002 4.575201,-4.554002 z"
   id="path1775"
   transform="matrix(0.80330014,0,0,0.80330014,0,-0.36647685)" /><path
   style="fill:#ff0000;stroke-width:0.521633"
   d="m 29.851252,38.980528 -4.031113,-4.054896 4.054545,-4.030765 c 2.23,-2.216921 4.200534,-4.030765 4.378964,-4.030765 0.178431,0 1.980267,1.836797 4.004081,4.08177 l 3.679661,4.08177 -4.027512,4.003891 -4.027512,4.00389 z"
   id="path1814"
   transform="matrix(0.80330014,0,0,0.80330014,0,-0.36647685)" /><path
   style="fill:#ff0000;stroke-width:0.521633"
   d="m 122.16364,38.963763 -4.04778,-4.07166 3.89113,-4.144409 3.89113,-4.144409 4.21535,4.181172 4.21535,4.181171 -4.0587,4.034898 -4.05871,4.034897 z"
   id="path1853"
   transform="matrix(0.80330014,0,0,0.80330014,0,-0.36647685)" /><path
   style="fill:#ff0000;stroke-width:0.521633"
   d="M 160.92379,34.427781 V 22.691038 h 11.21512 11.21511 v 11.736743 11.736744 h -11.21511 -11.21512 z m 15.79057,-4.032047 -4.55368,-4.574878 -4.31436,4.291946 c -2.3729,2.36057 -4.31436,4.52696 -4.31436,4.8142 0,0.287239 1.93165,2.463989 4.29255,4.837221 l 4.29255,4.314967 4.57549,-4.554289 4.57549,-4.554289 z"
   id="path1892"
   transform="matrix(0.80330014,0,0,0.80330014,0,-0.36647685)" /><path
   style="fill:#ff0000;stroke-width:0.521633"
   d="m 106.06383,54.849434 -2.43585,-2.777852 4.25761,-4.257611 4.25761,-4.257612 -4.29606,-4.296058 -4.29605,-4.296057 4.24898,-4.271169 4.24898,-4.271168 -4.25757,-4.592677 -4.25756,-4.592676 2.61062,-2.610627 2.61063,-2.610627 4.46489,4.425011 4.46489,4.425011 4.21145,-4.355982 4.21144,-4.355982 4.36715,4.344466 4.36715,4.344465 4.31877,-4.296335 4.31877,-4.296334 2.57729,2.616631 2.57728,2.616632 -4.2882,4.310592 -4.2882,4.310593 4.4345,4.411465 4.43451,4.411466 -4.17338,4.195168 c -2.29536,2.307342 -4.17337,4.419806 -4.17337,4.694364 0,0.274559 1.81202,2.321909 4.02671,4.549669 l 4.02672,4.050472 -2.57693,2.616268 -2.57693,2.616268 -4.32256,-4.300107 -4.32256,-4.300107 -4.29227,4.292266 -4.29226,4.292266 -4.31089,-4.288493 -4.31089,-4.288493 -4.31437,4.291956 c -2.3729,2.360575 -4.42683,4.288994 -4.56429,4.285373 -0.13745,-0.0036 -1.34605,-1.256616 -2.68576,-2.784435 z M 137.97194,34.427781 V 22.169404 H 126.2352 114.49845 v 12.258377 12.258377 h 11.73675 11.73674 z"
   id="path1931"
   transform="matrix(0.80330014,0,0,0.80330014,0,-0.36647685)" /><path
   style="fill:#ff0000;stroke-width:0.521633"
   d="m 14.084378,55.032577 -2.577285,-2.616631 4.2882,-4.310593 4.2882,-4.310593 -4.43479,-4.411752 -4.43479,-4.411752 4.431303,-4.45193 4.431303,-4.45193 -4.288456,-4.288456 -4.288456,-4.288457 2.581028,-2.620431 2.581029,-2.620432 4.318769,4.296334 4.31877,4.296335 4.367151,-4.344465 4.367152,-4.344466 4.211444,4.355982 4.211443,4.355982 4.458143,-4.418298 4.458144,-4.418298 2.582428,2.543597 2.582429,2.543598 -4.238276,4.637254 -4.238276,4.637254 4.264637,4.286907 4.264638,4.286908 -4.292266,4.292265 -4.292266,4.292266 4.293392,4.315812 4.293392,4.315811 -2.72769,2.72769 -2.72769,2.72769 -4.315811,-4.293392 -4.315812,-4.293392 -4.292266,4.292266 -4.292265,4.292266 -4.310888,-4.288493 -4.310887,-4.288493 -4.31877,4.296334 -4.318769,4.296334 z M 45.642892,34.427781 V 22.169404 H 33.906148 22.169404 v 12.258377 12.258377 h 11.736744 11.736744 z"
   id="path1970"
   transform="matrix(0.80330014,0,0,0.80330014,0,-0.36647685)" /><path
   style="fill:#ff0000;stroke-width:0.521633"
   d="m 38.861662,62.595966 -3.886137,-3.912248 h 7.798385 7.798385 l -3.886137,3.912248 c -2.137376,2.151736 -3.897888,3.912247 -3.912248,3.912247 -0.01436,0 -1.774872,-1.760511 -3.912248,-3.912247 z"
   id="path2009"
   transform="matrix(0.80330014,0,0,0.80330014,0,-0.36647685)" /><path
   style="fill:#ff0000;stroke-width:0.521633"
   d="m 21.62208,62.570101 -3.860446,-3.886383 h 7.473936 7.473936 l -3.241976,3.656775 c -1.783087,2.011226 -3.409158,3.760098 -3.613491,3.886383 -0.204332,0.126285 -2.108714,-1.519264 -4.231959,-3.656775 z"
   id="path2048"
   transform="matrix(0.80330014,0,0,0.80330014,0,-0.36647685)" /><path
   style="fill:#ff0000;stroke-width:0.521633"
   d="m 11.215111,72.76781 v -8.076899 l 4.038449,4.03845 4.038449,4.038449 -4.038449,4.038449 -4.038449,4.03845 z"
   id="path2087"
   transform="matrix(0.80330014,0,0,0.80330014,0,-0.36647685)" /><path
   style="fill:#ff0000;stroke-width:0.521633"
   d="m 11.215111,90.125164 v -7.681032 l 3.912642,3.886529 3.912642,3.886529 -3.769179,3.794503 c -2.073048,2.086977 -3.833737,3.794503 -3.912642,3.794503 -0.07891,0 -0.143463,-3.456464 -0.143463,-7.681032 z"
   id="path2126"
   transform="matrix(0.80330014,0,0,0.80330014,0,-0.36647685)" /><path
   style="fill:#ff0000;stroke-width:0.521633"
   d="m 21.260753,100.54898 4.03845,-4.038453 4.038449,4.038453 4.03845,4.03845 h -8.076899 -8.076899 z"
   id="path2165"
   transform="matrix(0.80330014,0,0,0.80330014,0,-0.36647685)" /><path
   style="fill:#ff0000;stroke-width:0.521633"
   d="m 38.474644,100.54898 4.038449,-4.038453 4.038449,4.038453 4.03845,4.03845 h -8.076899 -8.076899 z"
   id="path2204"
   transform="matrix(0.80330014,0,0,0.80330014,0,-0.36647685)" /><path
   style="fill:#ff0000;stroke-width:0.521633"
   d="m 52.54108,94.011693 -3.769179,-3.794503 3.912642,-3.886529 3.912643,-3.886529 v 7.681032 c 0,4.224568 -0.06456,7.681032 -0.143464,7.681032 -0.0789,0 -1.839594,-1.707526 -3.912642,-3.794503 z"
   id="path2243"
   transform="matrix(0.80330014,0,0,0.80330014,0,-0.36647685)" /><path
   style="fill:#ff0000;stroke-width:0.521633"
   d="m 52.77468,76.611792 -3.561689,-3.828156 3.561689,-3.935802 3.561689,-3.935802 0.15235,3.927889 c 0.08379,2.160339 0.08379,5.65412 0,7.763958 l -0.15235,3.836068 z"
   id="path2282"
   transform="matrix(0.80330014,0,0,0.80330014,0,-0.36647685)" /><path
   style="fill:#ff0000;stroke-width:0.521633"
   d="m 59.983774,101.45354 -2.572973,-2.612253 4.284427,-4.3068 4.284427,-4.306799 -4.292266,-4.292266 -4.292266,-4.292266 4.414621,-4.437673 4.41462,-4.437673 -4.406781,-4.429793 -4.406782,-4.429793 2.577286,-2.616632 2.577285,-2.616631 4.199257,4.177443 c 2.309591,2.297593 4.467434,4.177442 4.795207,4.177442 0.327772,0 2.384623,-1.925334 4.570779,-4.27852 l 3.974829,-4.27852 3.936943,4.27852 c 2.165319,2.353186 4.206522,4.27852 4.536008,4.27852 0.329485,0 2.48873,-1.879849 4.798321,-4.177442 l 4.199257,-4.177443 2.577287,2.616631 2.57728,2.616632 -4.406777,4.429793 -4.406781,4.429793 4.41462,4.437673 4.414618,4.437673 -4.292264,4.292266 -4.292265,4.292266 4.291139,4.313547 4.29114,4.313548 -2.72704,2.727047 -2.727046,2.72704 -4.313548,-4.29114 -4.313548,-4.29114 -4.292265,4.29227 -4.292266,4.29226 -4.318835,-4.2964 -4.318835,-4.296398 -4.149257,4.173735 c -2.282091,2.295553 -4.280955,4.173733 -4.44192,4.173733 -0.160964,0 -1.450501,-1.17551 -2.865636,-2.61225 z M 91.947438,81.244347 92.087461,69.116379 H 80.080286 68.073113 V 81.027 c 0,6.550842 0.160864,12.071486 0.357477,12.268098 0.196612,0.196612 5.53683,0.294419 11.867152,0.217347 l 11.509674,-0.14013 z"
   id="path2321"
   transform="matrix(0.80330014,0,0,0.80330014,0,-0.36647685)" /><path
   style="fill:#ff0000;stroke-width:0.521633"
   d="m 152.31282,101.45354 -2.57297,-2.612253 4.28856,-4.310955 4.28856,-4.310956 -4.1768,-4.152302 c -2.29724,-2.283766 -4.11673,-4.319977 -4.04332,-4.524912 0.0734,-0.204936 1.85768,-2.270118 3.96506,-4.589295 l 3.83159,-4.216685 -4.04066,-4.450701 -4.04065,-4.450701 2.54112,-2.579909 2.54111,-2.57991 4.31877,4.296335 4.31877,4.296334 4.31089,-4.288493 4.31088,-4.288493 4.29227,4.292265 4.29227,4.292266 4.31581,-4.293392 4.31581,-4.293392 2.72769,2.72769 2.72769,2.72769 -4.28962,4.31202 -4.28962,4.312019 4.29263,4.315043 4.29263,4.315043 -4.17374,4.149256 c -2.29555,2.282091 -4.17374,4.384595 -4.17374,4.672232 0,0.287636 1.87985,2.41264 4.17745,4.722231 l 4.17744,4.199257 -2.61663,2.577288 -2.61663,2.57728 -4.42581,-4.402816 -4.42581,-4.402819 -4.13354,4.418402 -4.13353,4.418403 -4.51874,-4.433882 -4.51875,-4.43388 -4.06278,4.303472 c -2.23452,2.36691 -4.1613,4.30347 -4.28173,4.30347 -0.12042,0 -1.37679,-1.17551 -2.79193,-2.61225 z M 183.87565,81.374755 V 69.116379 h -11.73674 -11.73675 v 12.258376 12.258377 h 11.73675 11.73674 z"
   id="path2360"
   transform="matrix(0.80330014,0,0,0.80330014,0,-0.36647685)" /><path
   style="fill:#ff0000;stroke-width:0.521633"
   d="m 144.74876,76.675619 -3.89055,-3.916687 4.03401,-4.03401 4.03401,-4.034011 v 7.950698 c 0,4.372883 -0.0645,7.950697 -0.14346,7.950697 -0.0789,0 -1.89421,-1.762509 -4.03401,-3.916687 z"
   id="path2399"
   transform="matrix(0.80330014,0,0,0.80330014,0,-0.36647685)" /><path
   style="fill:#ff0000;stroke-width:0.521633"
   d="m 98.869774,123.28402 -3.891937,-4.12308 4.022345,-4.02234 4.022348,-4.02235 v 8.21152 c 0,4.51633 -0.0587,8.18177 -0.13041,8.14542 -0.0717,-0.0363 -1.88178,-1.92147 -4.022346,-4.18917 z"
   id="path2438"
   transform="matrix(0.80330014,0,0,0.80330014,0,-0.36647685)" /><path
   style="fill:#ff0000;stroke-width:0.521633"
   d="m 84.76537,109.02131 -3.886137,-3.91225 h 7.798385 7.798385 l -3.886137,3.91225 c -2.137376,2.15173 -3.897888,3.91224 -3.912248,3.91224 -0.01436,0 -1.774872,-1.76051 -3.912248,-3.91224 z"
   id="path2477"
   transform="matrix(0.80330014,0,0,0.80330014,0,-0.36647685)" /><path
   style="fill:#ff0000;stroke-width:0.521633"
   d="m 67.55148,109.02131 -3.886138,-3.91225 h 7.798385 7.798386 l -3.886138,3.91225 c -2.137376,2.15173 -3.897887,3.91224 -3.912248,3.91224 -0.01436,0 -1.774872,-1.76051 -3.912247,-3.91224 z"
   id="path2516"
   transform="matrix(0.80330014,0,0,0.80330014,0,-0.36647685)" /><path
   style="fill:#ff0000;stroke-width:0.521633"
   d="m 57.118819,119.19315 v -8.0769 l 4.038449,4.03845 4.038449,4.03845 -4.038449,4.03845 -4.038449,4.03845 z"
   id="path2555"
   transform="matrix(0.80330014,0,0,0.80330014,0,-0.36647685)" /><path
   style="fill:#ff0000;stroke-width:0.521633"
   d="m 57.118819,136.92867 v -8.07689 l 4.038449,4.03845 4.038449,4.03844 -4.038449,4.03845 -4.038449,4.03845 z"
   id="path2594"
   transform="matrix(0.80330014,0,0,0.80330014,0,-0.36647685)" /><path
   style="fill:#ff0000;stroke-width:0.521633"
   d="m 67.551871,147.10012 3.886529,-3.91264 3.794503,3.76918 c 2.086977,2.07305 3.794504,3.83374 3.794504,3.91264 0,0.0789 -3.456465,0.14347 -7.681032,0.14347 h -7.681033 z"
   id="path2633"
   transform="matrix(0.80330014,0,0,0.80330014,0,-0.36647685)" /><path
   style="fill:#ff0000;stroke-width:0.521633"
   d="m 84.765762,147.10012 3.886529,-3.91264 3.794503,3.76918 c 2.086976,2.07305 3.794503,3.83374 3.794503,3.91264 0,0.0789 -3.456465,0.14347 -7.681032,0.14347 h -7.681032 z"
   id="path2672"
   transform="matrix(0.80330014,0,0,0.80330014,0,-0.36647685)" /><path
   style="fill:#ff0000;stroke-width:0.521633"
   d="m 98.845053,140.83648 -3.890547,-3.91668 4.03401,-4.03401 4.034014,-4.03401 v 7.95069 c 0,4.37289 -0.0646,7.9507 -0.14347,7.9507 -0.0789,0 -1.89421,-1.76251 -4.034007,-3.91669 z"
   id="path2711"
   transform="matrix(0.80330014,0,0,0.80330014,0,-0.36647685)" /><path
   style="fill:#ff0000;stroke-width:0.521633"
   d="m 149.44787,136.91993 v -8.05046 l 3.88476,3.85884 3.88476,3.85883 -1.49449,1.86607 c -0.82197,1.02635 -2.57012,2.91258 -3.88476,4.19163 l -2.39027,2.32555 z"
   id="path2750"
   transform="matrix(0.80330014,0,0,0.80330014,0,-0.36647685)" /><path
   style="fill:#ff0000;stroke-width:0.521633"
   d="m 157.19545,149.57828 c 0.57056,-0.78897 2.23318,-2.60278 3.69471,-4.03069 l 2.65732,-2.5962 4.03069,4.03069 4.03069,4.03069 h -7.7254 -7.7254 z"
   id="path2789"
   transform="matrix(0.80330014,0,0,0.80330014,0,-0.36647685)" /><path
   style="fill:#ff0000;stroke-width:0.521633"
   d="m 176.9193,147.10052 c 1.94882,-2.15174 3.6716,-3.91225 3.82839,-3.91225 0.1568,0 2.03385,1.76051 4.17123,3.91225 l 3.88613,3.91225 h -7.71453 -7.71453 z"
   id="path2828"
   transform="matrix(0.80330014,0,0,0.80330014,0,-0.36647685)" /><path
   style="fill:#ff0000;stroke-width:0.521633"
   d="m 190.77384,140.43703 -3.76918,-3.7945 3.91264,-3.88653 3.91264,-3.88653 v 7.68104 c 0,4.22456 -0.0646,7.68103 -0.14346,7.68103 -0.0789,0 -1.83959,-1.70753 -3.91264,-3.79451 z"
   id="path2867"
   transform="matrix(0.80330014,0,0,0.80330014,0,-0.36647685)" /><path
   style="fill:#ff0000;stroke-width:0.521633"
   d="m 190.77384,123.22314 -3.76918,-3.7945 3.91264,-3.88653 3.91264,-3.88653 v 7.68103 c 0,4.22457 -0.0646,7.68104 -0.14346,7.68104 -0.0789,0 -1.83959,-1.70753 -3.91264,-3.79451 z"
   id="path2906"
   transform="matrix(0.80330014,0,0,0.80330014,0,-0.36647685)" /><path
   style="fill:#ff0000;stroke-width:0.521633"
   d="m 176.9193,109.02131 -3.54331,-3.91225 h 7.71453 7.71453 l -3.88613,3.91225 c -2.13738,2.15173 -4.01443,3.91224 -4.17123,3.91224 -0.15679,0 -1.87957,-1.76051 -3.82839,-3.91224 z"
   id="path2945"
   transform="matrix(0.80330014,0,0,0.80330014,0,-0.36647685)" /><path
   style="fill:#ff0000;stroke-width:0.521633"
   d="m 160.62605,110.19498 c -1.43521,-1.50621 -3.04803,-3.26673 -3.58406,-3.91225 l -0.97459,-1.17367 h 7.76188 7.76188 l -3.88614,3.91225 c -2.13737,2.15173 -4.01739,3.91224 -4.17782,3.91224 -0.16043,0 -1.46595,-1.23235 -2.90115,-2.73857 z"
   id="path2984"
   transform="matrix(0.80330014,0,0,0.80330014,0,-0.36647685)" /><path
   style="fill:#ff0000;stroke-width:0.521633"
   d="m 149.44787,119.21958 v -8.03278 l 1.35673,1.2646 c 0.7462,0.69553 2.4946,2.57355 3.88534,4.17336 l 2.52862,2.90876 -3.88535,3.85942 -3.88534,3.85941 z"
   id="path3023"
   transform="matrix(0.80330014,0,0,0.80330014,0,-0.36647685)" /><path
   style="fill:#ff0000;stroke-width:0.521633"
   d="m 130.80369,100.54898 4.03845,-4.038453 4.03845,4.038453 4.03845,4.03845 h -8.0769 -8.0769 z"
   id="path3062"
   transform="matrix(0.80330014,0,0,0.80330014,0,-0.36647685)" /><path
   style="fill:#ff0000;stroke-width:0.521633"
   d="m 103.54416,72.76781 v -7.554686 l 3.77734,3.777343 3.77735,3.777343 -3.77735,3.777343 -3.77734,3.777343 z"
   id="path3101"
   transform="matrix(0.80330014,0,0,0.80330014,0,-0.36647685)" /><path
   style="fill:#ff0000;stroke-width:0.521633"
   d="m 113.45519,62.595966 -3.88614,-3.912248 h 7.79839 7.79838 l -3.88614,3.912248 c -2.13737,2.151736 -3.89788,3.912247 -3.91224,3.912247 -0.0144,0 -1.77488,-1.760511 -3.91225,-3.912247 z"
   id="path3140"
   transform="matrix(0.80330014,0,0,0.80330014,0,-0.36647685)" /><path
   style="fill:#ff0000;stroke-width:0.521633"
   d="m 131.05338,62.761295 -3.43309,-3.816761 3.61092,-0.153261 c 1.98601,-0.08429 5.26144,-0.08429 7.27873,0 l 3.66779,0.153261 -3.84563,3.816761 -3.84562,3.816761 z"
   id="path3179"
   transform="matrix(0.80330014,0,0,0.80330014,0,-0.36647685)" /><path
   style="fill:#ff0000;stroke-width:0.521633"
   d="m 144.87013,94.011693 -3.76918,-3.794503 3.91264,-3.886529 3.91264,-3.886529 v 7.681032 c 0,4.224568 -0.0645,7.681032 -0.14346,7.681032 -0.0789,0 -1.83959,-1.707526 -3.91264,-3.794503 z"
   id="path3218"
   transform="matrix(0.80330014,0,0,0.80330014,0,-0.36647685)" /><path
   style="fill:#ff0000;stroke-width:0.521633"
   d="m 103.54416,90.125164 v -7.681032 l 3.91264,3.886529 3.91264,3.886529 -3.76917,3.794503 c -2.07305,2.086977 -3.83374,3.794503 -3.91265,3.794503 -0.0789,0 -0.14346,-3.456464 -0.14346,-7.681032 z"
   id="path3257"
   transform="matrix(0.80330014,0,0,0.80330014,0,-0.36647685)" /><path
   style="fill:#ff0000;stroke-width:0.521633"
   d="m 84.5049,53.988672 4.148936,-4.173413 4.054547,4.030767 c 2.230001,2.216922 4.054547,4.094958 4.054547,4.173413 0,0.07845 -3.691567,0.142646 -8.203483,0.142646 h -8.203483 z"
   id="path3296"
   transform="matrix(0.80330014,0,0,0.80330014,0,-0.36647685)" /><path
   style="fill:#ff0000;stroke-width:0.521633"
   d="m 67.286956,15.906079 -4.144882,-4.169335 h 7.986499 7.986499 l -1.565812,1.956123 c -0.861196,1.075869 -2.589924,2.95207 -3.841617,4.169336 l -2.275806,2.213211 z"
   id="path3335"
   transform="matrix(0.80330014,0,0,0.80330014,0,-0.36647685)" /><path
   style="fill:#ff0000;stroke-width:0.521633"
   d="m 57.118819,26.197433 v -8.204238 l 3.781839,3.969546 c 2.080012,2.18325 3.841994,4.124933 3.915517,4.314852 0.07352,0.18992 -1.628305,2.095531 -3.781839,4.234693 l -3.915517,3.889385 z"
   id="path3374"
   transform="matrix(0.80330014,0,0,0.80330014,0,-0.36647685)" /><path
   style="fill:#ff0000;stroke-width:0.521633"
   d="m 57.118819,43.556359 v -8.076898 l 4.038449,4.038449 4.038449,4.038449 -4.038449,4.03845 -4.038449,4.038449 z"
   id="path3413"
   transform="matrix(0.80330014,0,0,0.80330014,0,-0.36647685)" /><path
   style="fill:#ff0000;stroke-width:0.521633"
   d="m 67.29101,53.988672 4.148935,-4.173413 4.054547,4.030767 c 2.230001,2.216922 4.054548,4.094958 4.054548,4.173413 0,0.07845 -3.691568,0.142646 -8.203483,0.142646 h -8.203483 z"
   id="path3452"
   transform="matrix(0.80330014,0,0,0.80330014,0,-0.36647685)" /><path
   style="fill:#ff0000;stroke-width:0.521633"
   d="m 98.845053,47.464168 -3.890547,-3.916687 4.03401,-4.03401 4.034014,-4.03401 v 7.950697 c 0,4.372883 -0.0646,7.950697 -0.14347,7.950697 -0.0789,0 -1.89421,-1.762509 -4.034007,-3.916687 z"
   id="path3491"
   transform="matrix(0.80330014,0,0,0.80330014,0,-0.36647685)" /><path
   style="fill:#ff0000;stroke-width:0.521633"
   d="m 98.905347,30.313935 -3.856363,-3.885231 3.856363,-4.253133 3.856363,-4.253133 0.1519,4.234783 c 0.0835,2.329131 0.0835,5.991395 0,8.138365 l -0.1519,3.90358 z"
   id="path3530"
   transform="matrix(0.80330014,0,0,0.80330014,0,-0.36647685)" /><path
   style="fill:#ff0000;stroke-width:0.521633"
   d="m 84.812147,16.079295 -3.763772,-4.081735 3.94503,-0.15235 c 2.169766,-0.08379 5.71241,-0.08379 7.872543,0 l 3.927514,0.15235 -4.108772,4.081735 -4.108771,4.081734 z"
   id="path3569"
   transform="matrix(0.80330014,0,0,0.80330014,0,-0.36647685)" /><path
   style="fill:#ff0000;stroke-width:0.521633"
   d="m 149.44787,26.225116 v -7.941849 l 3.87869,3.852802 3.87869,3.852803 -3.6922,4.089046 c -2.03071,2.248976 -3.77612,4.089047 -3.87869,4.089047 -0.10257,0 -0.18649,-3.573833 -0.18649,-7.941849 z"
   id="path3608"
   transform="matrix(0.80330014,0,0,0.80330014,0,-0.36647685)" /><path
   style="fill:#ff0000;stroke-width:0.521633"
   d="m 159.3589,15.648991 -3.88614,-3.912247 h 8.0592 8.0592 l -3.88614,3.912247 c -2.13737,2.151737 -4.01525,3.912248 -4.17306,3.912248 -0.15781,0 -2.03569,-1.760511 -4.17306,-3.912248 z"
   id="path3647"
   transform="matrix(0.80330014,0,0,0.80330014,0,-0.36647685)" /><path
   style="fill:#ff0000;stroke-width:0.521633"
   d="m 176.57279,15.648991 -3.88614,-3.912247 h 8.0592 8.0592 l -3.88613,3.912247 c -2.13738,2.151737 -4.01526,3.912248 -4.17307,3.912248 -0.15781,0 -2.03569,-1.760511 -4.17306,-3.912248 z"
   id="path3686"
   transform="matrix(0.80330014,0,0,0.80330014,0,-0.36647685)" /><path
   style="fill:#ff0000;stroke-width:0.521633"
   d="m 176.7074,54.123635 4.03845,-4.038449 4.03845,4.038449 4.03845,4.03845 h -8.0769 -8.0769 z"
   id="path3725"
   transform="matrix(0.80330014,0,0,0.80330014,0,-0.36647685)" /><path
   style="fill:#ff0000;stroke-width:0.521633"
   d="m 159.49351,54.123635 4.03845,-4.038449 4.03845,4.038449 4.03845,4.03845 h -8.0769 -8.0769 z"
   id="path3764"
   transform="matrix(0.80330014,0,0,0.80330014,0,-0.36647685)" /><path
   style="fill:#ff0000;stroke-width:0.521633"
   d="m 149.44787,43.556359 v -8.076898 l 4.03845,4.038449 4.03845,4.038449 -4.03845,4.03845 -4.03845,4.038449 z"
   id="path3803"
   transform="matrix(0.80330014,0,0,0.80330014,0,-0.36647685)" /><path
   style="fill:#ff0000;stroke-width:0.521633"
   d="m 190.77384,47.586352 -3.76918,-3.794503 3.91264,-3.886529 3.91264,-3.886529 v 7.681032 c 0,4.224567 -0.0646,7.681032 -0.14346,7.681032 -0.0789,0 -1.83959,-1.707527 -3.91264,-3.794503 z"
   id="path3842"
   transform="matrix(0.80330014,0,0,0.80330014,0,-0.36647685)" /><path
   style="fill:#ff0000;stroke-width:0.521633"
   d="m 190.77384,29.850828 -3.76918,-3.794503 3.91264,-3.886529 3.91264,-3.886529 v 7.681032 c 0,4.224568 -0.0646,7.681033 -0.14346,7.681033 -0.0789,0 -1.83959,-1.707527 -3.91264,-3.794504 z"
   id="path3881"
   transform="matrix(0.80330014,0,0,0.80330014,0,-0.36647685)" /><path
   style="fill:#ff0000;stroke-width:0.521633"
   d="m 113.5898,100.54898 4.03845,-4.038453 4.03845,4.038453 4.03845,4.03845 h -8.0769 -8.0769 z"
   id="path3920"
   transform="matrix(0.80330014,0,0,0.80330014,0,-0.36647685)" /></svg>
